OpenSim_Sub02_CSStiffKnee_GRF.mot
version=1
nRows=58
nColumns=19
inDegrees=no
endheader
time	lFx	lFy	lFz	lCOPx	lCOPy	lCOPz	rFx	rFy	rFz	rCOPx	rCOPy	rCOPz	lMx	lMy	lMz	rMx	rMy	rMz
34.45000000	2.68352889	0.36847583	1.08665280	-0.00000709	0	0.00000698	-43.92999475	491.63724525	-47.47837837	0.86184167	0	-0.38839288	0	-0.00000334	0	0	-0.41949841	-0.00000000
34.46000000	2.43184097	0.46251364	0.99357680	-0.00000152	0	0.00000074	-42.33872515	498.66848680	-47.95948162	0.85635282	0	-0.38860154	0	-0.00000455	0	0	-0.30778537	-0.00000000
34.47000000	2.18543687	0.64267819	0.90080142	0.00000079	0	-0.00000135	-41.00710544	505.65274758	-48.18688277	0.85105849	0	-0.38889432	0	-0.00000275	0	0	-0.20500934	0.00000000
34.48000000	1.94505815	0.71976194	0.81813753	0.00000145	0	-0.00000161	-39.89893810	512.42149772	-48.19253649	0.84595538	0	-0.38926453	0	-0.00000143	0	0	-0.17341636	-0.00000000
34.49000000	1.71295643	0.66976730	0.67586488	0.00000168	0	-0.00000153	-39.02302454	519.02794456	-48.07189609	0.84093891	0	-0.38965962	0	-0.00000185	0	0	-0.22120777	-0.00000000
34.50000000	1.46288826	0.63493396	0.51208831	0.00000162	0	-0.00000139	-38.43801445	525.47700503	-47.94695635	0.83604951	0	-0.39004081	0	-0.00000388	0	0	-0.25928039	0
34.51000000	1.18281841	0.68631747	0.35695308	0.00000010	0	-0.00000023	-37.97022662	531.53765087	-47.73467081	0.83115554	0	-0.39040159	0	-0.00000571	0	0	-0.24152618	0.00000000
34.52000000	0.91226231	0.78983728	0.22974352	-0.00000513	0	0.00000383	-37.24945381	536.99683595	-47.40618669	0.82590344	0	-0.39074885	0	-0.00000247	0	0	-0.16648799	0.00000000
34.53000000	0.68605193	0.92216757	0.13594880	-0.00001591	0	0.00001250	-36.00559115	541.66275632	-47.09973647	0.82026828	0	-0.39107553	0	0.00001451	0	0	-0.07261979	-0.00000000
34.54000000	0.51758795	1.02250385	0.07254554	-0.00002926	0	0.00002380	-34.21001326	545.14745943	-46.93793836	0.81434677	0	-0.39135626	0	0.00005406	0	0	-0.03202595	0.00000000
34.55000000	0.42266501	1.03348212	0.00871949	-0.00002929	0	0.00002552	-31.88230610	547.13084234	-47.04161962	0.80829964	0	-0.39158561	0	0.00011043	0	0	-0.04126348	0.00000000
34.56000000	0.40003686	1.06053019	-0.07049464	0.00002133	0	-0.00001210	-29.06753172	547.42714892	-47.49078388	0.80224357	0	-0.39179332	0	0.00013283	0	0	-0.04064884	0.00000000
34.57000000	0.46934972	1.13326687	-0.12781680	0.00017627	0	-0.00013378	-25.79116078	546.08733646	-48.13936077	0.79606476	0	-0.39196510	0	-0.00001244	0	0	-0.04379958	0.00000000
34.58000000	0.59543057	1.19168371	-0.11841766	0.00045830	0	-0.00036333	-22.24881764	543.30212517	-48.74991268	0.78973163	0	-0.39207581	0	-0.00054175	0	0	-0.04362468	-0.00000000
34.59000000	0.65089479	1.40221722	-0.01369469	0.00073349	0	-0.00060409	-18.64149683	539.09451712	-49.10541243	0.78336021	0	-0.39215263	0	-0.00160998	0	0	0.00592233	0.00000000
34.60000000	0.38560322	2.18920744	0.22734297	0.00050585	0	-0.00047013	-15.02729061	533.23398452	-49.03137462	0.77708565	0	-0.39223823	0	-0.00287047	0	0	0.06344588	-0.00000000
34.61000000	-0.40599839	3.93104575	0.57670124	-0.00123399	0	0.00085257	-11.30897170	525.08701300	-48.61077216	0.77080680	0	-0.39238694	0	-0.00267550	0	0	0.10966685	-0.00000000
34.62000000	-1.53841110	6.38470493	0.98194702	-0.00569272	0	0.00439057	-7.33644593	514.18255204	-48.09857262	0.76457094	0	-0.39263970	0	0.00270049	0	0	0.12386370	0
34.63000000	-2.46410807	8.55680161	1.28389221	-0.01273412	0	0.01019732	-3.20424122	500.63727789	-47.57755490	0.75831630	0	-0.39296519	0	0.01840559	0	0	0.09561692	-0.00000000
34.64000000	-2.96501012	9.92386173	1.33883135	-0.01736581	0	0.01454368	0.73276716	485.50376077	-47.02011554	0.75182419	0	-0.39332736	0	0.04606025	0	0	0.11057313	0
34.65000000	-3.36011514	10.72843517	1.30593180	-0.00483337	0	0.00582011	4.20941736	470.40360090	-46.30728917	0.74521102	0	-0.39373235	0	0.07110018	0	0	0.22057850	-0.00000000
34.66000000	-4.32280990	11.83341906	1.46576855	0.05106448	0	-0.03734499	7.45681183	456.17165279	-45.31097388	0.73870569	0	-0.39419267	0	0.04283069	0	0	0.36502520	0.00000000
34.67000000	-6.70868988	14.97276855	2.24966308	0.17452682	0	-0.13630235	10.73183701	442.83564088	-44.14024978	0.73249135	0	-0.39468971	0	-0.13859020	0	0	0.53795489	-0.00000000
34.68000000	-11.29393428	22.96226162	4.46393380	0.34995358	0	-0.28294349	14.09579697	430.26456834	-43.03945171	0.72648596	0	-0.39521154	0	-0.60310846	0	0	0.72340403	-0.00000000
34.69000000	-17.88822163	39.36368980	8.90872377	0.52429265	0	-0.43718002	17.57495144	418.00965741	-42.01785107	0.72035371	0	-0.39573544	0	-1.42910979	0	0	0.90522323	0.00000000
34.70000000	-24.06561439	66.97803058	15.42814497	0.66185252	0	-0.56117522	21.27211933	405.03012883	-40.91626251	0.71396625	0	-0.39623219	0	-2.43668800	0	0	1.11448901	0
34.71000000	-25.50528805	104.92549368	21.79329823	0.74068969	0	-0.62679388	25.30815133	389.38437234	-39.49254705	0.70758414	0	-0.39669200	0	-2.90716421	0	0	1.33268590	0.00000000
34.72000000	-21.07048690	149.71284316	25.13670391	0.76640107	0	-0.64631695	29.45210420	368.72179604	-37.41985061	0.70138817	0	-0.39707446	0	-2.06558131	0	0	1.48706917	0
34.73000000	-14.78397162	199.77912480	26.93303830	0.76082703	0	-0.64428078	33.20929950	341.13366379	-34.53964630	0.69542728	0	-0.39739518	0	-0.64686457	0	0	1.61679958	0
34.74000000	-10.18216980	253.34812047	29.91583806	0.74561532	0	-0.63698400	35.85258223	305.69644440	-30.83317477	0.68993133	0	-0.39787908	0	0.18188766	0	0	1.75068655	-0.00000000
34.75000000	-7.02734224	307.34627172	33.07741765	0.73249055	0	-0.63122442	36.27735339	263.25052257	-26.44322810	0.68512831	0	-0.39905463	0	0.84487671	0	0	1.83672514	0
34.76000000	-4.44258834	359.50894532	35.89873320	0.72361124	0	-0.62817068	32.96397790	216.90366467	-21.79005362	0.68184550	0	-0.40173936	0	1.58365958	0	0	1.83842939	0
34.77000000	-1.90497687	408.46552458	39.16110250	0.71739209	0	-0.62709278	25.38366760	170.80189058	-17.36585910	0.68200750	0	-0.40664990	0	2.09732452	0	0	1.72312873	-0.00000000
34.78000000	1.20749414	453.16663329	43.17088358	0.71205425	0	-0.62713430	15.05606193	128.49950744	-13.63636962	0.68597907	0	-0.41249882	0	2.31221040	0	0	1.42281809	0
34.79000000	4.93687579	492.62389427	48.20168755	0.70692077	0	-0.62767830	4.23067639	92.44700408	-11.01376063	0.68348567	0	-0.41263863	0	2.15398827	0	0	1.00159533	0
34.80000000	8.73329015	525.28504716	54.11402385	0.70173407	0	-0.62831577	-4.83715091	63.99260082	-9.32060559	0.64828863	0	-0.39136272	0	1.58321348	0	0	0.59196296	0
34.81000000	12.21632117	550.30593395	59.95828795	0.69656810	0	-0.62894441	-10.25085246	42.47660719	-7.92013655	0.54152074	0	-0.32636488	0	0.76348636	0	0	0.27325735	0.00000000
34.82000000	15.34375410	568.35172744	64.71801517	0.69162740	0	-0.62955834	-10.89088068	25.76324376	-6.11547768	0.34788861	0	-0.20922941	0	-0.09604030	0	0	0.08440251	0
34.83000000	17.88731379	580.68830698	67.93159875	0.68717278	0	-0.63007783	-7.46730731	12.53254477	-3.55376951	0.14542998	0	-0.08732140	0	-0.80557629	0	0	-0.00109837	0.00000000
34.84000000	19.52994205	587.92290897	69.41084273	0.68333505	0	-0.63043065	-3.21836926	3.66336816	-0.95589572	0.02557173	0	-0.01526338	0	-1.22508406	0	0	-0.02314355	0
34.85000000	20.25349485	590.08528291	69.21338788	0.67981782	0	-0.63056593	-0.55366678	-0.37635983	0.30260900	-0.01772460	0	0.01071574	0	-1.29954513	0	0	-0.01837994	-0.00000000
34.86000000	20.27605731	587.36396676	67.79526047	0.67648435	0	-0.63051737	0.46925994	-1.27756943	0.42709227	-0.02104202	0	0.01266953	0	-1.12294416	0	0	-0.00872342	0.00000000
34.87000000	19.91670659	580.45044095	65.67929991	0.67339031	0	-0.63040762	0.57497546	-0.87400706	0.40556420	-0.01229998	0	0.00739438	0	-0.79468172	0	0	-0.00218989	0
34.88000000	19.33615974	570.71195363	63.33111200	0.67062332	0	-0.63036848	0.38910528	-0.29163621	0.25869502	-0.00437301	0	0.00262373	0	-0.41980892	0	0	0.00053399	-0.00000000
34.89000000	18.74706483	559.40600959	61.07634174	0.66780525	0	-0.63042917	0.21488955	-0.00673532	0.13808039	-0.00028388	0	0.00016647	0	-0.08030655	0	0	0.00100829	0.00000000
34.90000000	18.40216884	547.56667943	59.11307436	0.66454858	0	-0.63059018	0.12274788	0.01967745	0.14923078	0.00092425	0	-0.00055764	0	0.16366766	0	0	0.00067255	0.00000000
34.91000000	18.27154391	536.15830808	57.53781985	0.66094280	0	-0.63086779	0.08941449	-0.05075238	0.08814531	0.00082045	0	-0.00049375	0	0.26083644	0	0	0.00027663	-0.00000000
34.92000000	18.28406665	526.05112396	56.22396328	0.65721584	0	-0.63123177	0.08377255	-0.09340568	0.05071175	0.00041810	0	-0.00025124	0	0.29802321	0	0	0.00004579	-0.00000000
34.93000000	18.42270393	517.99311177	55.11591690	0.65344105	0	-0.63160940	0.11113096	-0.08723214	0.09587053	0.00012091	0	-0.00007246	0	0.33375942	0	0	-0.00003602	-0.00000000
34.94000000	18.81540471	512.16318937	54.16643105	0.64928421	0	-0.63195777	0.12852748	-0.01305123	0.08028992	-0.00001273	0	0.00000781	0	0.38913872	0	0	-0.00004113	0.00000000
34.95000000	19.58272231	508.33411645	53.28983547	0.64464248	0	-0.63229132	0.11940045	0.09265803	0.12750299	-0.00004218	0	0.00002542	0	0.47648585	0	0	-0.00002369	0.00000000
34.96000000	20.75278369	506.00268651	52.44757689	0.63932332	0	-0.63255091	0.11178625	0.15833008	0.19540096	-0.00003072	0	0.00001846	0	0.59915180	0	0	-0.00000827	-0.00000000
34.97000000	22.19845832	504.74352140	51.77118455	0.63351981	0	-0.63269442	0.09056154	0.19064323	0.15591938	-0.00001372	0	0.00000822	0	0.69357042	0	0	-0.00000043	0.00000000
34.98000000	23.79573398	504.19420756	51.26803286	0.62746931	0	-0.63279806	0.05556471	0.20945102	0.14908758	-0.00000297	0	0.00000176	0	0.73873019	0	0	0.00000187	-0.00000000
34.99000000	25.58686858	504.03659904	50.84091328	0.62130604	0	-0.63291820	0.01932407	0.25413120	0.14628204	0.00000145	0	-0.00000083	0	0.74730939	0	0	0.00000174	-0.00000000
35	27.59211449	504.12068734	50.52513516	0.61506189	0	-0.63303668	0.00674649	0.29636879	0.10992373	0.00000266	0	-0.00000143	0	0.72428023	0	0	0.00000112	-0.00000000
35.01000000	29.75218982	504.49550199	50.33841954	0.60874564	0	-0.63309567	0.02313673	0.25057844	0.15757640	0.00000306	0	-0.00000148	0	0.74247983	0	0	0.00000066	0.00000000
35.02000000	31.91710113	505.33049152	50.23659733	0.60260647	0	-0.63310534	0.03580629	0.18959105	0.17240637	0.00000308	0	-0.00000139	0	0.81399399	0	0	0.00000009	-0.00000000
